<svg id="Layer_1" data-name="Layer 1" xmlns="http://www.w3.org/2000/svg" viewBox="0 0 288 288"><defs><style>.cls-1{fill:#464870;}.cls-2{fill:#ffd471;}</style></defs><title>pendulums-logo</title><rect class="cls-1" width="288" height="288" rx="36"/><g id="Logo"><path class="cls-2" d="M125.92,223.61c-7.62,0-15.23.15-22.84,0a19.82,19.82,0,0,1-3.29-39.16,21.61,21.61,0,0,1,4.82-.49c13.44,0,26.87,0,40.3,0a59.82,59.82,0,1,0-60.78-59.25c0,12.68,0,25.36,0,38A21.42,21.42,0,0,1,77.33,179a33.16,33.16,0,0,0-10.21,24.16c-.17,10.38,3.55,19,10.95,26.32,5.76,5.66,7.51,12.62,5,20.29s-7.92,12.13-15.77,13.53A19.85,19.85,0,0,1,44.43,246a19.56,19.56,0,0,1,6.27-17,32.1,32.1,0,0,0,9.85-17.57c2.27-12.54-.48-23.7-9.81-32.8a20.54,20.54,0,0,1-6.49-15.4c0-13.42-.28-26.85.07-40.26.89-33.9,15.28-60.82,42.78-80.63A95,95,0,0,1,126.87,26a98.35,98.35,0,0,1,31-.52A99.78,99.78,0,0,1,236,85a93,93,0,0,1,7.4,28.6c2.9,32.28-7.18,59.89-30.4,82.49-14.3,13.92-31.56,22.42-51.21,26a98.38,98.38,0,0,1-18,1.54c-5.95,0-11.91,0-17.86,0Z"/><path class="cls-2" d="M144.06,143.92A19.87,19.87,0,1,1,164,124.15,19.82,19.82,0,0,1,144.06,143.92Z"/></g></svg>